# xmcd
#
# Track frame offsets:
#	150
#	29305
#	56791
#	92348
#	129556
#	178607
#	187434
#	235938
#	252030
#	289577
#	339206
#
# Disc length: 4730 seconds
#
# Revision: 1
# Processed by: cddbd v1.5PL3 Copyright (c) Steve Scherf et al.
# Submitted via: audiograbber 1.80
#
DISCID=9712780b
DTITLE=Ten Years After - Recorded Live
DYEAR=1900
DGENRE=
TTITLE0=One Of These Days
TTITLE1=You Give Me Loving
TTITLE2=Good Morning Little Schoolgirl
TTITLE3=Hobbit
TTITLE4=Help Me
TTITLE5=I Can't Keep From Cryin' Some Times
TTITLE6=I Can't Keep From Cryin' Some Times
TTITLE7=I Can't Keep From Cryin' Some Times
TTITLE8=Slow Blues In 'C
TTITLE9=I'm Going Home
TTITLE10=Choo Choo Mama
EXTD=
EXTT0=
EXTT1=
EXTT2=
EXTT3=
EXTT4=
EXTT5=
EXTT6=
EXTT7=
EXTT8=
EXTT9=
EXTT10=
PLAYORDER=
